<?xml version="1.0" encoding="utf-8"?>
<!-- Generator: Adobe Illustrator 24.0.2, SVG Export Plug-In . SVG Version: 6.00 Build 0)  -->
<svg version="1.1" id="图层_1" xmlns="http://www.w3.org/2000/svg" xmlns:xlink="http://www.w3.org/1999/xlink" x="0px" y="0px"
	 viewBox="0 0 108 37" style="enable-background:new 0 0 108 37;" xml:space="preserve">
<style type="text/css">
	.st0{fill:#FFFFFF;}
	.st1{fill:#FF0000;}
	.st2{fill:#0000FF;}
</style>
<g>
	<g>
		<path class="st0" d="M28,27.61c0-3.71,2.51-5.96,5.27-5.96c2.97,0,4.72,2.14,4.72,5.36c0,0.45-0.04,0.87-0.08,1.17h-8.73v-1.5
			h7.69l-0.45,0.54c0-2.7-1.21-4.04-3.1-4.04c-1.91,0-3.57,1.6-3.57,4.44c0,2.96,1.74,4.46,4.04,4.46c1.23,0,2.21-0.42,3.14-1.08
			l0.64,1.27c-1.02,0.75-2.34,1.36-3.99,1.36C30.46,33.62,28,31.41,28,27.61z"/>
		<path class="st0" d="M40.99,27.65c0-3.83,2.63-6.01,5.76-6.01c1.68,0,2.91,0.75,3.76,1.67l-0.87,1.24
			c-0.85-0.8-1.74-1.29-2.82-1.29c-2.38,0-4.01,1.76-4.01,4.39c0,2.61,1.61,4.34,3.97,4.34c1.27,0,2.34-0.63,3.19-1.43l0.79,1.27
			c-1.15,1.13-2.57,1.79-4.1,1.79C43.41,33.62,40.99,31.44,40.99,27.65z"/>
		<path class="st0" d="M54.26,16.62h1.76v11.3h0.09l5.54-5.99h2.02l-7.65,8.31v3.1h-1.76V16.62z M58.24,27.28l1.06-1.27l4.93,7.33
			h-1.95L58.24,27.28z"/>
		<path class="st0" d="M66.05,27.65c0-3.83,2.38-6.01,5.1-6.01s5.1,2.18,5.1,6.01c0,3.78-2.38,5.97-5.1,5.97
			S66.05,31.44,66.05,27.65z M74.44,27.65c0-2.63-1.32-4.39-3.29-4.39s-3.29,1.76-3.29,4.39c0,2.61,1.32,4.34,3.29,4.34
			S74.44,30.26,74.44,27.65z"/>
		<path class="st0" d="M80.6,21.92h1.46l0.17,2.7h0.04c1.08-1.85,2.7-2.98,4.61-2.98c0.76,0,1.4,0.12,2.04,0.47l-0.4,1.67
			c-0.72-0.26-1.1-0.38-1.91-0.38c-1.55,0-3.02,0.87-4.25,3.26v6.67H80.6V21.92z"/>
		<path class="st0" d="M92.45,22.04l3-0.12h6.01v1.57h-9.01V22.04z M95.4,20.96c0-2.77,1.32-4.63,4.16-4.63c1.02,0,2,0.21,2.97,0.66
			l-0.4,1.46c-0.85-0.4-1.51-0.54-2.4-0.54c-1.85,0-2.59,1.15-2.59,2.98v12.45H95.4V20.96z"/>
	</g>
</g>
<g>
	<g>
		<path class="st1" d="M2.76,28.69l2.54-2.45c1.82,2.78,4.32,4.13,6.77,4.13c4.46,0,6.48-2.26,6.48-7.44V5.21H5.4V1.81h17.23v21.46
			c0,5.86-2.64,10.66-10.46,10.66C8.67,33.92,4.97,32.29,2.76,28.69z"/>
	</g>
</g>
<g>
	<g>
		<path class="st2" d="M4.63,29.5l2.54-2.45c1.82,2.78,4.32,4.13,6.77,4.13c4.46,0,6.48-2.26,6.48-7.44V6.02H7.27V2.61H24.5v21.46
			c0,5.86-2.64,10.66-10.46,10.66C10.53,34.73,6.83,33.1,4.63,29.5z"/>
	</g>
</g>
<g>
	<g>
		<path class="st0" d="M3.87,28.65l2.54-2.45c1.82,2.78,4.32,4.13,6.77,4.13c4.46,0,6.48-2.26,6.48-7.44V5.18H6.51V1.77h17.23v21.46
			c0,5.86-2.64,10.66-10.46,10.66C9.77,33.89,6.07,32.25,3.87,28.65z"/>
	</g>
</g>
</svg>
