<?xml version="1.0" encoding="utf-8"?>
<!-- Generator: Adobe Illustrator 24.1.1, SVG Export Plug-In . SVG Version: 6.00 Build 0)  -->
<svg version="1.1" id="图层_1" xmlns="http://www.w3.org/2000/svg" xmlns:xlink="http://www.w3.org/1999/xlink" x="0px" y="0px"
	 viewBox="0 0 108 37" style="enable-background:new 0 0 108 37;" xml:space="preserve">
<style type="text/css">
	.st0{fill:#FF0000;}
	.st1{fill:#0000FF;}
	.st2{fill:#FFFFFF;}
</style>
<g>
	<g>
		<path d="M28,27.6c0-3.7,2.5-6,5.3-6c3,0,4.7,2.1,4.7,5.4c0,0.5,0,0.9-0.1,1.2h-8.7v-1.5h7.7l-0.5,0.5c0-2.7-1.2-4-3.1-4
			c-1.9,0-3.6,1.6-3.6,4.4c0,3,1.7,4.5,4,4.5c1.2,0,2.2-0.4,3.1-1.1l0.6,1.3c-1,0.8-2.3,1.4-4,1.4C30.5,33.6,28,31.4,28,27.6z"/>
		<path d="M41,27.6c0-3.8,2.6-6,5.8-6c1.7,0,2.9,0.8,3.8,1.7l-0.9,1.2c-0.8-0.8-1.7-1.3-2.8-1.3c-2.4,0-4,1.8-4,4.4
			c0,2.6,1.6,4.3,4,4.3c1.3,0,2.3-0.6,3.2-1.4l0.8,1.3c-1.2,1.1-2.6,1.8-4.1,1.8C43.4,33.6,41,31.4,41,27.6z"/>
		<path d="M54.3,16.6H56v11.3h0.1l5.5-6h2L56,30.2v3.1h-1.8V16.6z M58.2,27.3l1.1-1.3l4.9,7.3h-2L58.2,27.3z"/>
		<path d="M66.1,27.6c0-3.8,2.4-6,5.1-6s5.1,2.2,5.1,6c0,3.8-2.4,6-5.1,6S66.1,31.4,66.1,27.6z M74.4,27.6c0-2.6-1.3-4.4-3.3-4.4
			s-3.3,1.8-3.3,4.4c0,2.6,1.3,4.3,3.3,4.3S74.4,30.3,74.4,27.6z"/>
		<path d="M80.6,21.9h1.5l0.2,2.7h0c1.1-1.9,2.7-3,4.6-3c0.8,0,1.4,0.1,2,0.5l-0.4,1.7c-0.7-0.3-1.1-0.4-1.9-0.4
			c-1.6,0-3,0.9-4.3,3.3v6.7h-1.8V21.9z"/>
		<path d="M92.4,22l3-0.1h6v1.6h-9V22z M95.4,21c0-2.8,1.3-4.6,4.2-4.6c1,0,2,0.2,3,0.7l-0.4,1.5c-0.8-0.4-1.5-0.5-2.4-0.5
			c-1.8,0-2.6,1.1-2.6,3v12.5h-1.7V21z"/>
	</g>
</g>
<g>
	<g>
		<path class="st0" d="M2.8,28.7l2.5-2.5c1.8,2.8,4.3,4.1,6.8,4.1c4.5,0,6.5-2.3,6.5-7.4V5.2H5.4V1.8h17.2v21.5
			c0,5.9-2.6,10.7-10.5,10.7C8.7,33.9,5,32.3,2.8,28.7z"/>
	</g>
</g>
<g>
	<g>
		<path class="st1" d="M4.6,29.5L7.2,27c1.8,2.8,4.3,4.1,6.8,4.1c4.5,0,6.5-2.3,6.5-7.4V6H7.3V2.6h17.2v21.5
			c0,5.9-2.6,10.7-10.5,10.7C10.5,34.7,6.8,33.1,4.6,29.5z"/>
	</g>
</g>
<g>
	<g>
		<path class="st2" d="M3.9,28.6l2.5-2.5c1.8,2.8,4.3,4.1,6.8,4.1c4.5,0,6.5-2.3,6.5-7.4V5.2H6.5V1.8h17.2v21.5
			c0,5.9-2.6,10.7-10.5,10.7C9.8,33.9,6.1,32.3,3.9,28.6z"/>
	</g>
</g>
</svg>
